<svg preserveAspectRatio="xMidYMid meet" data-bbox="31.224 53.198 137.504 93.5" viewBox="31.224 53.198 137.504 93.5" height="200" width="200" xmlns="http://www.w3.org/2000/svg" data-type="color" role="img">
    <g>
        <path d="M165.888 137.139c-.798-.497-1.994-1.394-2.293-1.792.099 0 .498-.1 1.096-.1.499 0 1.894 0 2.193-.996.199-.498.598-1.693-5.482-6.074l-.1-.1h-.199c-.798 0-1.695 0-2.891-.1-13.855-.497-17.742-13.741-17.742-13.841-1.495-5.875-21.032-16.53-21.829-16.928h-.1c-1.196-.299-1.794-.797-1.894-1.494-.299-1.991 3.588-5.875 8.771-8.862 1.395-.797 2.093-1.892 1.993-3.187-.299-3.983-8.273-8.464-10.266-9.261-2.692-1.096-6.978 5.974-7.775 7.269-1.894 2.688-4.187 4.082-6.579 4.182-4.585.199-8.372-4.182-8.472-4.282-.598-.497-16.447-13.343-24.62-13.841-8.174-.498-16.347-5.775-16.347-7.07s-1.794-1.593-3.688-1.892c-1.595-.299-3.489-.597-3.489-1.394 0-.498-.2-.797-.399-.996-.598-.498-1.595-.299-2.791-.1-1.097.199-2.392.498-3.09 0-.299-.199-.398-.498-.498-.996-.1-1.095-.698-1.593-1.196-1.792-2.093-1.095-6.28 1.195-6.778 1.494l-.199.1v.299c.598 4.681 4.087 20.812 24.221 32.164 2.692 1.494 8.672 2.689 15.553 4.081 1.994.398 4.087.797 6.18 1.195 2.99.597 4.784 2.29 5.482 5.078.897 3.784-.797 8.464-2.392 9.759-2.89 2.39-4.385 5.775-4.485 5.875l-.1.299.199.199c1.694 1.693-1.496 6.573-2.891 8.365l-.997 1.195 1.495-.398c6.678-1.892 17.443-9.758 17.842-10.057 10.964-5.875 23.224 8.265 23.324 8.464 13.057 14.738 39.87 23.302 50.136 24.895.797.099 1.495.199 1.993.199.897 0 1.396-.199 1.595-.597.399-.797-.498-1.693-1.694-2.888-.598-.597-1.794-1.792-1.694-2.091 0 0 .199-.199 1.395-.199.997 0 1.994-.1 2.293-.797.299-.896-.798-1.692-2.791-2.987zM93.949 82.924l.066.069-.066-.069z" fill="#216583" data-color="1"></path>
    </g>
</svg>